<svg xmlns="http://www.w3.org/2000/svg" viewBox="0 0 256 256" role="img" aria-label="MAIFoR">
  <rect width="256" height="256" rx="36" fill="#F7F5F0"/>
  <path d="M1890.8030395507812 76.80035400390625 2067.6029052734375 30.80010986328125V0H1438.7991943359375V30.80010986328125L1617.7991943359375 73.0001220703125L1523.5992431640625 1316.7993774414062L1538.79931640625 1314.599365234375L997.2007446289062 -15.999755859375H906.197265625L336.199462890625 1288.3998413085938L351.3995361328125 1291.1998291015625L273.399658203125 71.60003662109375L464.19915771484375 30.80010986328125V0H31.59967041015625V30.80010986328125L205.1993408203125 71.60003662109375L285.7991943359375 1329.599609375L103.39923095703125 1398.9998779296875V1430H562.6036376953125L1073.6007080078125 255.80224609375L1038.6008911132812 256.00225830078125L1512.9990844726562 1430H1982.40283203125V1398.9998779296875L1788.2030639648438 1355.3997192382812Z" transform="translate(20.000 147.270) scale(0.025355 -0.025355)" fill="#00205B"/>
  <path d="M337.9996337890625 531.9985961914062V597.9989624023438H1044.1995849609375V531.9985961914062ZM1376.6024169921875 76.000244140625 1532.6024169921875 30.80010986328125V0H915.1986083984375V30.80010986328125L1093.9984130859375 74.000244140625L605.1990966796875 1187.59912109375L641.5997924804688 1197.19970703125L204.80029296875 78.2000732421875L391.60009765625 30.40008544921875V0H-21.0001220703125V30.40008544921875L131.9998779296875 81.2000732421875L673.5994873046875 1445.999755859375H766.8028564453125Z" transform="translate(74.742 147.270) scale(0.025355 -0.025355)" fill="#06B6C9"/>
  <path d="M673.8025512695312 30.85725620814732V0H63.79974365234375V30.80010986328125L235.59930419921875 74.00018310546875V1356.9998168945312L63.79974365234375 1398.9427315848213V1430H673.8025512695312V1398.9998779296875L502.00299072265625 1356.9998168945312V74.00018310546875Z" transform="translate(114.296 147.270) scale(0.025355 -0.025355)" fill="#06B6C9"/>
  <path d="M973.0018920898438 1017.4003295898438 935.0016479492188 716.3998413085938 973.0018920898438 417.39935302734375H949.0017700195312L832.4014282226562 676.3995361328125L364.4036865234375 700.1995239257812V733.8001708984375L832.4014282226562 761.2001342773438L949.0017700195312 1017.4003295898438ZM1122.2022705078125 1491.0004272460938H1132.8024291992188L1238.4024047851562 1022.19921875L1210.6022338867188 1014.1991577148438L963.001708984375 1393.39990234375L1120.201904296875 1361.99951171875H332.801513671875V1430H988.802001953125ZM502.00299072265625 1430V74.00018310546875L673.8025512695312 30.80010986328125V0H63.79974365234375V30.80010986328125L235.59930419921875 74.00018310546875V1356.9998168945312L63.79974365234375 1398.9998779296875V1430Z" transform="translate(134.732 147.270) scale(0.025355 -0.025355)" fill="#00205B"/>
  <path d="M574.800537109375 29.00030517578125Q661.39990234375 29.00030517578125 718.8993835449219 81.20013427734375Q776.3988647460938 133.39996337890625 804.7985534667969 238.79977416992188Q833.1982421875 344.1995849609375 833.1982421875 502.99951171875Q833.1982421875 665.3995971679688 805.3985595703125 774.4996337890625Q777.598876953125 883.5996704101562 721.099365234375 939.1996765136719Q664.599853515625 994.7996826171875 578.400390625 994.7996826171875Q491.801025390625 994.7996826171875 434.40155029296875 942.599853515625Q377.0020751953125 890.4000244140625 348.50238037109375 785.1002197265625Q320.002685546875 679.8004150390625 320.002685546875 521.00048828125Q320.002685546875 359.400390625 347.8023681640625 249.80035400390625Q375.60205078125 140.2003173828125 432.1015625 84.60031127929688Q488.60107421875 29.00030517578125 574.800537109375 29.00030517578125ZM569.600341796875 -22.0001220703125Q427.5999755859375 -22.0001220703125 313.89984130859375 45.9998779296875Q200.19970703125 113.9998779296875 133.89968872070312 234.4998779296875Q67.59967041015625 354.9998779296875 67.59967041015625 511.59991455078125Q67.59967041015625 669 136.39974975585938 789.6000366210938Q205.1998291015625 910.2000732421875 322.10003662109375 978.10009765625Q439.000244140625 1046.0001220703125 583.6005859375 1046.0001220703125Q728.6009521484375 1046.0001220703125 841.9010925292969 978.1001281738281Q955.2012329101562 910.2001342773438 1020.5012512207031 790.0001220703125Q1085.80126953125 669.8001098632812 1085.80126953125 512.4000854492188Q1085.80126953125 355 1015.9011840820312 234.29995727539062Q946.0010986328125 113.59991455078125 828.8009033203125 45.799896240234375Q711.6007080078125 -22.0001220703125 569.600341796875 -22.0001220703125Z" transform="translate(168.353 147.270) scale(0.025355 -0.025355)" fill="#00205B"/>
  <path d="M657.4019165039062 770.400146484375Q804.401611328125 770.400146484375 885.8013000488281 848.2000427246094Q967.2009887695312 925.9999389648438 967.2009887695312 1076.7997436523438Q967.2009887695312 1169.3997802734375 931.9011535644531 1234.4996948242188Q896.601318359375 1299.599609375 818.2017822265625 1333.99951171875Q739.80224609375 1368.3994140625 610.203125 1368.3994140625H294.39996337890625L320.6015625 1430H698.404296875Q899.0043334960938 1430 1015.704345703125 1385.1000061035156Q1132.4043579101562 1340.2000122070312 1182.5043640136719 1262.7000427246094Q1232.6043701171875 1185.2000732421875 1232.6043701171875 1085.6001586914062Q1232.6043701171875 996.0000610351562 1182.7043151855469 919.4000244140625Q1132.8042602539062 842.7999877929688 1034.1041564941406 794.1000061035156Q935.404052734375 745.4000244140625 789.00390625 738.2000732421875V741.4000854492188Q886.2042236328125 739.4000244140625 948.7044982910156 715.5997924804688Q1011.2047729492188 691.799560546875 1052.7048950195312 644.0993041992188Q1094.2050170898438 596.3990478515625 1127.6048583984375 519.9989013671875L1266.2037353515625 216.59991455078125Q1303.00341796875 137.000244140625 1331.6033020019531 99.600341796875Q1360.2031860351562 62.200439453125 1395.7031860351562 52.00042724609375Q1431.2031860351562 41.8004150390625 1487.6032104492188 41.8004150390625V0Q1360.601806640625 -9.60009765625 1279.5010375976562 -8.40008544921875Q1198.4002685546875 -7.2000732421875 1148.4999694824219 10.79998779296875Q1098.5996704101562 28.800048828125 1066.7996826171875 68.10012817382812Q1034.9996948242188 107.40020751953125 1005.599853515625 172.4002685546875L844.0008544921875 534.8001708984375Q811.8010864257812 607.4000244140625 784.0011596679688 644.5998840332031Q756.2012329101562 681.7997436523438 725.4012451171875 695.2996520996094Q694.6012573242188 708.799560546875 651.2013549804688 708.799560546875H316.601318359375L289.7996826171875 770.400146484375ZM502.80303955078125 1430V75.60028076171875L676.6027221679688 30.80010986328125V0H62.59967041015625V30.80010986328125L236.39935302734375 75.60028076171875V1355.3997192382812L62.59967041015625 1398.9998779296875V1430Z" transform="translate(199.311 147.270) scale(0.025355 -0.025355)" fill="#00205B"/>
</svg>
