<svg xmlns="http://www.w3.org/2000/svg" viewBox="0 0 400 100" role="img" aria-label="MAIFoR — Mathew AI Forskning og Rådgivning">
  <path d="M1890.8030395507812 76.80035400390625 2067.6029052734375 30.80010986328125V0H1438.7991943359375V30.80010986328125L1617.7991943359375 73.0001220703125L1523.5992431640625 1316.7993774414062L1538.79931640625 1314.599365234375L997.2007446289062 -15.999755859375H906.197265625L336.199462890625 1288.3998413085938L351.3995361328125 1291.1998291015625L273.399658203125 71.60003662109375L464.19915771484375 30.80010986328125V0H31.59967041015625V30.80010986328125L205.1993408203125 71.60003662109375L285.7991943359375 1329.599609375L103.39923095703125 1398.9998779296875V1430H562.6036376953125L1073.6007080078125 255.80224609375L1038.6008911132812 256.00225830078125L1512.9990844726562 1430H1982.40283203125V1398.9998779296875L1788.2030639648438 1355.3997192382812Z" transform="translate(89.173 58.000) scale(0.026000 -0.026000)" fill="#FFFFFF"/>
  <path d="M337.9996337890625 531.9985961914062V597.9989624023438H1044.1995849609375V531.9985961914062ZM1376.6024169921875 76.000244140625 1532.6024169921875 30.80010986328125V0H915.1986083984375V30.80010986328125L1093.9984130859375 74.000244140625L605.1990966796875 1187.59912109375L641.5997924804688 1197.19970703125L204.80029296875 78.2000732421875L391.60009765625 30.40008544921875V0H-21.0001220703125V30.40008544921875L131.9998779296875 81.2000732421875L673.5994873046875 1445.999755859375H766.8028564453125Z" transform="translate(145.339 58.000) scale(0.026000 -0.026000)" fill="#06B6C9"/>
  <path d="M673.8025512695312 30.85725620814732V0H63.79974365234375V30.80010986328125L235.59930419921875 74.00018310546875V1356.9998168945312L63.79974365234375 1398.9427315848213V1430H673.8025512695312V1398.9998779296875L502.00299072265625 1356.9998168945312V74.00018310546875Z" transform="translate(185.931 58.000) scale(0.026000 -0.026000)" fill="#06B6C9"/>
  <path d="M973.0018920898438 1017.4003295898438 935.0016479492188 716.3998413085938 973.0018920898438 417.39935302734375H949.0017700195312L832.4014282226562 676.3995361328125L364.4036865234375 700.1995239257812V733.8001708984375L832.4014282226562 761.2001342773438L949.0017700195312 1017.4003295898438ZM1122.2022705078125 1491.0004272460938H1132.8024291992188L1238.4024047851562 1022.19921875L1210.6022338867188 1014.1991577148438L963.001708984375 1393.39990234375L1120.201904296875 1361.99951171875H332.801513671875V1430H988.802001953125ZM502.00299072265625 1430V74.00018310546875L673.8025512695312 30.80010986328125V0H63.79974365234375V30.80010986328125L235.59930419921875 74.00018310546875V1356.9998168945312L63.79974365234375 1398.9998779296875V1430Z" transform="translate(206.919 58.000) scale(0.026000 -0.026000)" fill="#FFFFFF"/>
  <path d="M574.800537109375 29.00030517578125Q661.39990234375 29.00030517578125 718.8993835449219 81.20013427734375Q776.3988647460938 133.39996337890625 804.7985534667969 238.79977416992188Q833.1982421875 344.1995849609375 833.1982421875 502.99951171875Q833.1982421875 665.3995971679688 805.3985595703125 774.4996337890625Q777.598876953125 883.5996704101562 721.099365234375 939.1996765136719Q664.599853515625 994.7996826171875 578.400390625 994.7996826171875Q491.801025390625 994.7996826171875 434.40155029296875 942.599853515625Q377.0020751953125 890.4000244140625 348.50238037109375 785.1002197265625Q320.002685546875 679.8004150390625 320.002685546875 521.00048828125Q320.002685546875 359.400390625 347.8023681640625 249.80035400390625Q375.60205078125 140.2003173828125 432.1015625 84.60031127929688Q488.60107421875 29.00030517578125 574.800537109375 29.00030517578125ZM569.600341796875 -22.0001220703125Q427.5999755859375 -22.0001220703125 313.89984130859375 45.9998779296875Q200.19970703125 113.9998779296875 133.89968872070312 234.4998779296875Q67.59967041015625 354.9998779296875 67.59967041015625 511.59991455078125Q67.59967041015625 669 136.39974975585938 789.6000366210938Q205.1998291015625 910.2000732421875 322.10003662109375 978.10009765625Q439.000244140625 1046.0001220703125 583.6005859375 1046.0001220703125Q728.6009521484375 1046.0001220703125 841.9010925292969 978.1001281738281Q955.2012329101562 910.2001342773438 1020.5012512207031 790.0001220703125Q1085.80126953125 669.8001098632812 1085.80126953125 512.4000854492188Q1085.80126953125 355 1015.9011840820312 234.29995727539062Q946.0010986328125 113.59991455078125 828.8009033203125 45.799896240234375Q711.6007080078125 -22.0001220703125 569.600341796875 -22.0001220703125Z" transform="translate(241.427 58.000) scale(0.026000 -0.026000)" fill="#FFFFFF"/>
  <path d="M657.4019165039062 770.400146484375Q804.401611328125 770.400146484375 885.8013000488281 848.2000427246094Q967.2009887695312 925.9999389648438 967.2009887695312 1076.7997436523438Q967.2009887695312 1169.3997802734375 931.9011535644531 1234.4996948242188Q896.601318359375 1299.599609375 818.2017822265625 1333.99951171875Q739.80224609375 1368.3994140625 610.203125 1368.3994140625H294.39996337890625L320.6015625 1430H698.404296875Q899.0043334960938 1430 1015.704345703125 1385.1000061035156Q1132.4043579101562 1340.2000122070312 1182.5043640136719 1262.7000427246094Q1232.6043701171875 1185.2000732421875 1232.6043701171875 1085.6001586914062Q1232.6043701171875 996.0000610351562 1182.7043151855469 919.4000244140625Q1132.8042602539062 842.7999877929688 1034.1041564941406 794.1000061035156Q935.404052734375 745.4000244140625 789.00390625 738.2000732421875V741.4000854492188Q886.2042236328125 739.4000244140625 948.7044982910156 715.5997924804688Q1011.2047729492188 691.799560546875 1052.7048950195312 644.0993041992188Q1094.2050170898438 596.3990478515625 1127.6048583984375 519.9989013671875L1266.2037353515625 216.59991455078125Q1303.00341796875 137.000244140625 1331.6033020019531 99.600341796875Q1360.2031860351562 62.200439453125 1395.7031860351562 52.00042724609375Q1431.2031860351562 41.8004150390625 1487.6032104492188 41.8004150390625V0Q1360.601806640625 -9.60009765625 1279.5010375976562 -8.40008544921875Q1198.4002685546875 -7.2000732421875 1148.4999694824219 10.79998779296875Q1098.5996704101562 28.800048828125 1066.7996826171875 68.10012817382812Q1034.9996948242188 107.40020751953125 1005.599853515625 172.4002685546875L844.0008544921875 534.8001708984375Q811.8010864257812 607.4000244140625 784.0011596679688 644.5998840332031Q756.2012329101562 681.7997436523438 725.4012451171875 695.2996520996094Q694.6012573242188 708.799560546875 651.2013549804688 708.799560546875H316.601318359375L289.7996826171875 770.400146484375ZM502.80303955078125 1430V75.60028076171875L676.6027221679688 30.80010986328125V0H62.59967041015625V30.80010986328125L236.39935302734375 75.60028076171875V1355.3997192382812L62.59967041015625 1398.9998779296875V1430Z" transform="translate(273.205 58.000) scale(0.026000 -0.026000)" fill="#FFFFFF"/>
  <path d="M140 0V1440H274.663330078125L841.332763671875 229.3255615234375L1404.0020751953125 1440H1541.3321533203125V1.3333740234375H1400.6689453125V1112.0076904296875L887.9993896484375 0H793.332763671875L280.6632080078125 1112.0076904296875V0Z" transform="translate(89.173 84.000) scale(0.004500 -0.004500)" fill="rgba(255,255,255,0.7)"/>
  <path d="M40 0 536.001708984375 1440H731.32861328125L1227.330322265625 0H1074.0008544921875L603.331787109375 1358.002685546875H660.665283203125L193.3294677734375 0ZM261.33203125 349.3348388671875V487.331298828125H1005.33154296875V349.3348388671875Z" transform="translate(98.457 84.000) scale(0.004500 -0.004500)" fill="rgba(255,255,255,0.7)"/>
  <path d="M523.3348388671875 0V1299.3367919921875H20V1440H1173.33251953125V1299.3367919921875H669.9976806640625V0Z" transform="translate(105.877 84.000) scale(0.004500 -0.004500)" fill="rgba(255,255,255,0.7)"/>
  <path d="M140 0V1440H286.662841796875V790.6649169921875H1082.66748046875V1440H1229.330322265625V0H1082.66748046875V650.001708984375H286.662841796875V0Z" transform="translate(112.965 84.000) scale(0.004500 -0.004500)" fill="rgba(255,255,255,0.7)"/>
  <path d="M140 0V1440H1039.998779296875V1299.3367919921875H286.662841796875V800.664306640625H919.998779296875V660.0010986328125H286.662841796875V140.6632080078125H1039.998779296875V0Z" transform="translate(120.844 84.000) scale(0.004500 -0.004500)" fill="rgba(255,255,255,0.7)"/>
  <path d="M448.6668701171875 0 33.333740234375 1440H185.996337890625L522.6650390625 251.3272705078125L858.0003662109375 1439.3333740234375L1011.996337890625 1440L1348.6650390625 251.3272705078125L1684.0003662109375 1440H1837.996337890625L1422.6632080078125 0H1274.6668701171875L934.9983520507812 1181.3397216796875L596.6632080078125 0Z" transform="translate(127.693 84.000) scale(0.004500 -0.004500)" fill="rgba(255,255,255,0.7)"/>
  <path d="M40 0 536.001708984375 1440H731.32861328125L1227.330322265625 0H1074.0008544921875L603.331787109375 1358.002685546875H660.665283203125L193.3294677734375 0ZM261.33203125 349.3348388671875V487.331298828125H1005.33154296875V349.3348388671875Z" transform="translate(141.351 84.000) scale(0.004500 -0.004500)" fill="rgba(255,255,255,0.7)"/>
  <path d="M160 0V1440H306.662841796875V0Z" transform="translate(148.772 84.000) scale(0.004500 -0.004500)" fill="rgba(255,255,255,0.7)"/>
  <path d="M140 0V1440H966.6650390625V1293.337158203125H286.662841796875V793.3314208984375H846.6650390625V646.6685791015625H286.662841796875V0Z" transform="translate(156.111 84.000) scale(0.004500 -0.004500)" fill="rgba(255,255,255,0.7)"/>
  <path d="M723.332275390625 -30Q507.99896240234375 -30 360.1658935546875 65.3333740234375Q212.33282470703125 160.666748046875 136.16641235351562 329.666748046875Q60 498.666748046875 60 720Q60 941.333251953125 136.16641235351562 1110.333251953125Q212.33282470703125 1279.333251953125 360.1658935546875 1374.6666259765625Q507.99896240234375 1470 723.332275390625 1470Q938.6655883789062 1470 1086.4986572265625 1374.6666259765625Q1234.3317260742188 1279.333251953125 1310.4981384277344 1110.333251953125Q1386.66455078125 941.333251953125 1386.66455078125 720Q1386.66455078125 498.666748046875 1310.4981384277344 329.666748046875Q1234.3317260742188 160.666748046875 1086.4986572265625 65.3333740234375Q938.6655883789062 -30 723.332275390625 -30ZM723.332275390625 111.329833984375Q892.333251953125 110.6632080078125 1005.0005798339844 187.99703979492188Q1117.6679077148438 265.33087158203125 1174.1682434082031 402.66497802734375Q1230.6685791015625 539.9990844726562 1230.6685791015625 720Q1230.6685791015625 900.0009155273438 1174.1682434082031 1037.0017395019531Q1117.6679077148438 1174.0025634765625 1005.0005798339844 1251.0030517578125Q892.333251953125 1328.0035400390625 723.332275390625 1328.670166015625Q554.331298828125 1329.3367919921875 442.3306579589844 1252.3363037109375Q330.33001708984375 1175.3358154296875 273.8296813964844 1037.6683654785156Q217.329345703125 900.0009155273438 215.9959716796875 720Q214.66259765625 539.9990844726562 271.1629333496094 403.33160400390625Q327.66326904296875 266.66412353515625 440.9972839355469 189.33029174804688Q554.331298828125 111.9964599609375 723.332275390625 111.329833984375Z" transform="translate(162.362 84.000) scale(0.004500 -0.004500)" fill="rgba(255,255,255,0.7)"/>
  <path d="M140 0V1440H695.9984130859375Q716.9984130859375 1440 743.4981384277344 1438.5Q769.9978637695312 1437 797.3311767578125 1432Q909.6640014648438 1414.666748046875 988.1638793945312 1353.3335266113281Q1066.6637573242188 1292.0003051757812 1107.3304748535156 1198.8338012695312Q1147.9971923828125 1105.6672973632812 1147.9971923828125 993.334228515625Q1147.9971923828125 830.3347778320312 1061.997314453125 710.1683654785156Q975.9974365234375 590.001953125 815.9984130859375 558.6685791015625L765.3338623046875 546.66845703125H286.662841796875V0ZM1012.0018310546875 0 728.0018310546875 586 869.3309326171875 640 1181.3309326171875 0ZM286.662841796875 687.3316650390625H691.9986572265625Q710.3319091796875 687.3316650390625 734.3318786621094 689.3316650390625Q758.3318481445312 691.3316650390625 781.3319091796875 695.998291015625Q854.9991455078125 711.6649780273438 902.6663513183594 756.8319396972656Q950.3335571289062 801.9989013671875 973.5005798339844 864.1661376953125Q996.6676025390625 926.3333740234375 996.6676025390625 993.334228515625Q996.6676025390625 1060.3350830078125 973.5005798339844 1122.5023193359375Q950.3335571289062 1184.6695556640625 902.6663513183594 1229.8365173339844Q854.9991455078125 1275.0034790039062 781.3319091796875 1290.670166015625Q758.3318481445312 1296.0034790039062 734.3318786621094 1297.6701354980469Q710.3319091796875 1299.3367919921875 691.9986572265625 1299.3367919921875H286.662841796875Z" transform="translate(170.592 84.000) scale(0.004500 -0.004500)" fill="rgba(255,255,255,0.7)"/>
  <path d="M639.9986572265625 -30Q489.332275390625 -30 368.83251953125 20.49981689453125Q248.332763671875 70.9996337890625 169.8328857421875 164.16592407226562Q91.3330078125 257.33221435546875 66.666259765625 385.3316650390625L217.328857421875 409.997802734375Q253.32904052734375 269.997314453125 369.3297119140625 190.33026123046875Q485.33038330078125 110.6632080078125 645.998291015625 110.6632080078125Q752.3328247070312 110.6632080078125 836.0001220703125 144.33026123046875Q919.6674194335938 177.997314453125 967.8343200683594 239.99795532226562Q1016.001220703125 301.99859619140625 1016.001220703125 386.666015625Q1016.001220703125 442.66705322265625 995.8341369628906 482.1676330566406Q975.6670532226562 521.668212890625 942.9998474121094 548.0018005371094Q910.3326416015625 574.3353881835938 871.1656188964844 591.6687622070312Q831.9985961914062 609.0021362304688 794.6654052734375 620.0020751953125L429.9990234375 728.668701171875Q363.998291015625 748.0022583007812 307.83160400390625 777.3358154296875Q251.6649169921875 806.6693725585938 210.3319091796875 848.3360595703125Q168.9989013671875 890.0027465820312 145.83258056640625 945.8357238769531Q122.666259765625 1001.668701171875 122.666259765625 1074.0010986328125Q122.666259765625 1195.6670532226562 186.66598510742188 1284.6668395996094Q250.66571044921875 1373.6666259765625 361.99871826171875 1421.6666564941406Q473.33172607421875 1469.6666870117188 615.33154296875 1469.3333740234375Q758.998046875 1468.666748046875 872.6646118164062 1417.6666870117188Q986.3311767578125 1366.6666259765625 1060.3310241699219 1272.4999389648438Q1134.3308715820312 1178.333251953125 1157.9971923828125 1048.666748046875L1004.00146484375 1021.3341064453125Q989.3348388671875 1114.6681518554688 935.0011596679688 1183.6687927246094Q880.66748046875 1252.66943359375 797.5000915527344 1290.3364868164062Q714.3327026367188 1328.0035400390625 613.998291015625 1328.670166015625Q517.3306274414062 1329.3367919921875 441.4967041015625 1296.8363952636719Q365.66278076171875 1264.3359985351562 321.8291931152344 1208.0020751953125Q277.99560546875 1151.6681518554688 277.99560546875 1080.0008544921875Q277.99560546875 1007.0000610351562 318.6626281738281 962.8329467773438Q359.32965087890625 918.6658325195312 418.6634521484375 893.6656188964844Q477.99725341796875 868.6654052734375 533.99755859375 852.665283203125L815.99853515625 769.9981689453125Q859.9981689453125 757.6649169921875 919.3312377929688 735.1649780273438Q978.664306640625 712.6650390625 1035.1641235351562 671.4984436035156Q1091.6639404296875 630.3318481445312 1128.8305053710938 562.9986267089844Q1165.9970703125 495.6654052734375 1165.9970703125 393.332275390625Q1165.9970703125 292.66607666015625 1126.4973449707031 213.83297729492188Q1086.9976196289062 134.9998779296875 1015.6646118164062 80.83328247070312Q944.3316040039062 26.66668701171875 848.4985046386719 -1.666656494140625Q752.6654052734375 -30 639.9986572265625 -30Z" transform="translate(177.986 84.000) scale(0.004500 -0.004500)" fill="rgba(255,255,255,0.7)"/>
  <path d="M140 0V1440H286.662841796875V759.99951171875L943.99951171875 1440H1131.9951171875L460.65966796875 744.6671142578125L1187.3289794921875 0H995.3336181640625L286.662841796875 720.001953125V0Z" transform="translate(185.253 84.000) scale(0.004500 -0.004500)" fill="rgba(255,255,255,0.7)"/>
  <path d="M140 0V1440H287.99609375L1080.6678466796875 259.9932861328125V1440H1228.6639404296875V0H1080.6678466796875L287.99609375 1181.340087890625V0Z" transform="translate(192.314 84.000) scale(0.004500 -0.004500)" fill="rgba(255,255,255,0.7)"/>
  <path d="M160 0V1440H306.662841796875V0Z" transform="translate(200.193 84.000) scale(0.004500 -0.004500)" fill="rgba(255,255,255,0.7)"/>
  <path d="M140 0V1440H287.99609375L1080.6678466796875 259.9932861328125V1440H1228.6639404296875V0H1080.6678466796875L287.99609375 1181.340087890625V0Z" transform="translate(204.014 84.000) scale(0.004500 -0.004500)" fill="rgba(255,255,255,0.7)"/>
  <path d="M717.3326416015625 -30Q564.6654663085938 -30 442.99884033203125 22.833465576171875Q321.33221435546875 75.66693115234375 235.83248901367188 174.0003662109375Q150.332763671875 272.33380126953125 105.1663818359375 410.6670837402344Q60 549.0003662109375 60 720Q60 946.3329467773438 138.49960327148438 1114.4996337890625Q216.99920654296875 1282.6663208007812 364.1656494140625 1375.6664733886719Q511.33209228515625 1468.6666259765625 717.3326416015625 1468.6666259765625Q947.3311767578125 1468.6666259765625 1091.6640625 1361.3339538574219Q1235.9969482421875 1254.0012817382812 1292.6636962890625 1073.3363037109375L1145.3343505859375 1037.33642578125Q1097.6674194335938 1169.3366088867188 990.1668395996094 1248.1700439453125Q882.666259765625 1327.0034790039062 723.332275390625 1327.3367919921875Q554.331298828125 1328.00341796875 442.3306579589844 1251.3362731933594Q330.33001708984375 1174.6691284179688 273.8296813964844 1037.3350219726562Q217.329345703125 900.0009155273438 215.9959716796875 720Q214.66259765625 539.9990844726562 271.1629333496094 403.33160400390625Q327.66326904296875 266.66412353515625 440.9972839355469 189.33029174804688Q554.331298828125 111.9964599609375 723.332275390625 111.329833984375Q877.66748046875 110.6632080078125 978.8349304199219 170.99734497070312Q1080.0023803710938 231.33148193359375 1132.3357238769531 342.99932861328125Q1184.6690673828125 454.66717529296875 1192.001953125 608.001708984375H859.998779296875V733.9991455078125H1345.997802734375Q1348.6644897460938 710.9988403320312 1349.3311462402344 685.3323974609375Q1349.997802734375 659.6659545898438 1349.997802734375 648.665771484375Q1349.997802734375 454.33282470703125 1279.9982299804688 300.6663513183594Q1209.9986572265625 146.9998779296875 1069.3323669433594 58.49993896484375Q928.6660766601562 -30 717.3326416015625 -30Z" transform="translate(211.894 84.000) scale(0.004500 -0.004500)" fill="rgba(255,255,255,0.7)"/>
  <path d="M723.332275390625 -30Q507.99896240234375 -30 360.1658935546875 65.3333740234375Q212.33282470703125 160.666748046875 136.16641235351562 329.666748046875Q60 498.666748046875 60 720Q60 941.333251953125 136.16641235351562 1110.333251953125Q212.33282470703125 1279.333251953125 360.1658935546875 1374.6666259765625Q507.99896240234375 1470 723.332275390625 1470Q938.6655883789062 1470 1086.4986572265625 1374.6666259765625Q1234.3317260742188 1279.333251953125 1310.4981384277344 1110.333251953125Q1386.66455078125 941.333251953125 1386.66455078125 720Q1386.66455078125 498.666748046875 1310.4981384277344 329.666748046875Q1234.3317260742188 160.666748046875 1086.4986572265625 65.3333740234375Q938.6655883789062 -30 723.332275390625 -30ZM723.332275390625 111.329833984375Q892.333251953125 110.6632080078125 1005.0005798339844 187.99703979492188Q1117.6679077148438 265.33087158203125 1174.1682434082031 402.66497802734375Q1230.6685791015625 539.9990844726562 1230.6685791015625 720Q1230.6685791015625 900.0009155273438 1174.1682434082031 1037.0017395019531Q1117.6679077148438 1174.0025634765625 1005.0005798339844 1251.0030517578125Q892.333251953125 1328.0035400390625 723.332275390625 1328.670166015625Q554.331298828125 1329.3367919921875 442.3306579589844 1252.3363037109375Q330.33001708984375 1175.3358154296875 273.8296813964844 1037.6683654785156Q217.329345703125 900.0009155273438 215.9959716796875 720Q214.66259765625 539.9990844726562 271.1629333496094 403.33160400390625Q327.66326904296875 266.66412353515625 440.9972839355469 189.33029174804688Q554.331298828125 111.9964599609375 723.332275390625 111.329833984375Z" transform="translate(223.477 84.000) scale(0.004500 -0.004500)" fill="rgba(255,255,255,0.7)"/>
  <path d="M717.3326416015625 -30Q564.6654663085938 -30 442.99884033203125 22.833465576171875Q321.33221435546875 75.66693115234375 235.83248901367188 174.0003662109375Q150.332763671875 272.33380126953125 105.1663818359375 410.6670837402344Q60 549.0003662109375 60 720Q60 946.3329467773438 138.49960327148438 1114.4996337890625Q216.99920654296875 1282.6663208007812 364.1656494140625 1375.6664733886719Q511.33209228515625 1468.6666259765625 717.3326416015625 1468.6666259765625Q947.3311767578125 1468.6666259765625 1091.6640625 1361.3339538574219Q1235.9969482421875 1254.0012817382812 1292.6636962890625 1073.3363037109375L1145.3343505859375 1037.33642578125Q1097.6674194335938 1169.3366088867188 990.1668395996094 1248.1700439453125Q882.666259765625 1327.0034790039062 723.332275390625 1327.3367919921875Q554.331298828125 1328.00341796875 442.3306579589844 1251.3362731933594Q330.33001708984375 1174.6691284179688 273.8296813964844 1037.3350219726562Q217.329345703125 900.0009155273438 215.9959716796875 720Q214.66259765625 539.9990844726562 271.1629333496094 403.33160400390625Q327.66326904296875 266.66412353515625 440.9972839355469 189.33029174804688Q554.331298828125 111.9964599609375 723.332275390625 111.329833984375Q877.66748046875 110.6632080078125 978.8349304199219 170.99734497070312Q1080.0023803710938 231.33148193359375 1132.3357238769531 342.99932861328125Q1184.6690673828125 454.66717529296875 1192.001953125 608.001708984375H859.998779296875V733.9991455078125H1345.997802734375Q1348.6644897460938 710.9988403320312 1349.3311462402344 685.3323974609375Q1349.997802734375 659.6659545898438 1349.997802734375 648.665771484375Q1349.997802734375 454.33282470703125 1279.9982299804688 300.6663513183594Q1209.9986572265625 146.9998779296875 1069.3323669433594 58.49993896484375Q928.6660766601562 -30 717.3326416015625 -30Z" transform="translate(231.707 84.000) scale(0.004500 -0.004500)" fill="rgba(255,255,255,0.7)"/>
  <path d="M140 0V1440H695.9984130859375Q716.9984130859375 1440 743.4981384277344 1438.5Q769.9978637695312 1437 797.3311767578125 1432Q909.6640014648438 1414.666748046875 988.1638793945312 1353.3335266113281Q1066.6637573242188 1292.0003051757812 1107.3304748535156 1198.8338012695312Q1147.9971923828125 1105.6672973632812 1147.9971923828125 993.334228515625Q1147.9971923828125 830.3347778320312 1061.997314453125 710.1683654785156Q975.9974365234375 590.001953125 815.9984130859375 558.6685791015625L765.3338623046875 546.66845703125H286.662841796875V0ZM1012.0018310546875 0 728.0018310546875 586 869.3309326171875 640 1181.3309326171875 0ZM286.662841796875 687.3316650390625H691.9986572265625Q710.3319091796875 687.3316650390625 734.3318786621094 689.3316650390625Q758.3318481445312 691.3316650390625 781.3319091796875 695.998291015625Q854.9991455078125 711.6649780273438 902.6663513183594 756.8319396972656Q950.3335571289062 801.9989013671875 973.5005798339844 864.1661376953125Q996.6676025390625 926.3333740234375 996.6676025390625 993.334228515625Q996.6676025390625 1060.3350830078125 973.5005798339844 1122.5023193359375Q950.3335571289062 1184.6695556640625 902.6663513183594 1229.8365173339844Q854.9991455078125 1275.0034790039062 781.3319091796875 1290.670166015625Q758.3318481445312 1296.0034790039062 734.3318786621094 1297.6701354980469Q710.3319091796875 1299.3367919921875 691.9986572265625 1299.3367919921875H286.662841796875Z" transform="translate(243.290 84.000) scale(0.004500 -0.004500)" fill="rgba(255,255,255,0.7)"/>
  <path d="M634.5506382086338 1556.6668701171875Q574.6655883789062 1556.6668701171875 524.8326110839844 1586.1666564941406Q474.9996337890625 1615.6664428710938 445.16650390625 1665.4994201660156Q415.3333740234375 1715.3323974609375 415.3333740234375 1775.9986572265625Q415.3333740234375 1836.33154296875 445.16650390625 1885.9978637695312Q474.9996337890625 1935.6641845703125 524.7907332982772 1965.497314453125Q574.581832807492 1995.3304443359375 634.5574753981371 1995.3304443359375Q695.6647338867188 1995.3304443359375 745.3310546875 1965.497314453125Q794.9973754882812 1935.6641845703125 824.4971618652344 1885.9978637695312Q853.9969482421875 1836.33154296875 853.9969482421875 1775.9986572265625Q853.9969482421875 1715.3323974609375 824.4971618652344 1665.4994201660156Q794.9973754882812 1615.6664428710938 745.2814850636017 1586.1666564941406Q695.5655946389222 1556.6668701171875 634.5506382086338 1556.6668701171875ZM634.6651611328125 1665.9986572265625Q681.3318481445312 1665.9986572265625 712.9985046386719 1698.4986572265625Q744.6651611328125 1730.9986572265625 744.6651611328125 1775.9986572265625Q744.6651611328125 1821.9986572265625 712.9985046386719 1853.9986572265625Q681.3318481445312 1885.9986572265625 634.6651611328125 1885.9986572265625Q589.6651611328125 1885.9986572265625 557.1651611328125 1853.9986572265625Q524.6651611328125 1821.9986572265625 524.6651611328125 1775.9986572265625Q524.6651611328125 1730.9986572265625 557.1651611328125 1698.4986572265625Q589.6651611328125 1665.9986572265625 634.6651611328125 1665.9986572265625ZM40 0 536.001708984375 1440H731.32861328125L1227.330322265625 0H1074.0008544921875L603.331787109375 1358.002685546875H660.665283203125L193.3294677734375 0ZM261.33203125 349.3348388671875V487.331298828125H1005.33154296875V349.3348388671875Z" transform="translate(250.684 84.000) scale(0.004500 -0.004500)" fill="rgba(255,255,255,0.7)"/>
  <path d="M140 0V1440H576.665771484375Q599.6659545898438 1440 655.3327026367188 1439.0Q710.9994506835938 1438 761.99951171875 1430.6666259765625Q925.9992065429688 1408.333251953125 1035.9988708496094 1308.9999389648438Q1145.99853515625 1209.6666259765625 1200.998291015625 1056.6666564941406Q1255.998046875 903.6666870117188 1255.998046875 720Q1255.998046875 535.6666259765625 1200.998291015625 382.6666564941406Q1145.99853515625 229.66668701171875 1035.9988708496094 130.66671752929688Q925.9992065429688 31.666748046875 761.99951171875 9.3333740234375Q711.6661376953125 2.66668701171875 654.9993591308594 1.333343505859375Q598.3325805664062 0 576.665771484375 0ZM291.9962158203125 141.329833984375H576.665771484375Q617.6661987304688 141.329833984375 665.3329162597656 143.82986450195312Q712.9996337890625 146.32989501953125 747.3328857421875 152.6632080078125Q873.3338623046875 174.99664306640625 950.8344116210938 254.99697875976562Q1028.3349609375 334.997314453125 1064.1685180664062 455.6647033691406Q1100.0020751953125 576.3320922851562 1100.0020751953125 720Q1100.0020751953125 865.33447265625 1063.835205078125 986.0018615722656Q1027.6683349609375 1106.6692504882812 950.0011291503906 1186.0029602050781Q872.3339233398438 1265.336669921875 747.3328857421875 1287.3367919921875Q712.9996337890625 1294.00341796875 664.3328857421875 1296.3367919921875Q615.6661376953125 1298.670166015625 576.665771484375 1298.670166015625H291.9962158203125Z" transform="translate(258.105 84.000) scale(0.004500 -0.004500)" fill="rgba(255,255,255,0.7)"/>
  <path d="M717.3326416015625 -30Q564.6654663085938 -30 442.99884033203125 22.833465576171875Q321.33221435546875 75.66693115234375 235.83248901367188 174.0003662109375Q150.332763671875 272.33380126953125 105.1663818359375 410.6670837402344Q60 549.0003662109375 60 720Q60 946.3329467773438 138.49960327148438 1114.4996337890625Q216.99920654296875 1282.6663208007812 364.1656494140625 1375.6664733886719Q511.33209228515625 1468.6666259765625 717.3326416015625 1468.6666259765625Q947.3311767578125 1468.6666259765625 1091.6640625 1361.3339538574219Q1235.9969482421875 1254.0012817382812 1292.6636962890625 1073.3363037109375L1145.3343505859375 1037.33642578125Q1097.6674194335938 1169.3366088867188 990.1668395996094 1248.1700439453125Q882.666259765625 1327.0034790039062 723.332275390625 1327.3367919921875Q554.331298828125 1328.00341796875 442.3306579589844 1251.3362731933594Q330.33001708984375 1174.6691284179688 273.8296813964844 1037.3350219726562Q217.329345703125 900.0009155273438 215.9959716796875 720Q214.66259765625 539.9990844726562 271.1629333496094 403.33160400390625Q327.66326904296875 266.66412353515625 440.9972839355469 189.33029174804688Q554.331298828125 111.9964599609375 723.332275390625 111.329833984375Q877.66748046875 110.6632080078125 978.8349304199219 170.99734497070312Q1080.0023803710938 231.33148193359375 1132.3357238769531 342.99932861328125Q1184.6690673828125 454.66717529296875 1192.001953125 608.001708984375H859.998779296875V733.9991455078125H1345.997802734375Q1348.6644897460938 710.9988403320312 1349.3311462402344 685.3323974609375Q1349.997802734375 659.6659545898438 1349.997802734375 648.665771484375Q1349.997802734375 454.33282470703125 1279.9982299804688 300.6663513183594Q1209.9986572265625 146.9998779296875 1069.3323669433594 58.49993896484375Q928.6660766601562 -30 717.3326416015625 -30Z" transform="translate(265.867 84.000) scale(0.004500 -0.004500)" fill="rgba(255,255,255,0.7)"/>
  <path d="M160 0V1440H306.662841796875V0Z" transform="translate(273.931 84.000) scale(0.004500 -0.004500)" fill="rgba(255,255,255,0.7)"/>
  <path d="M506.001708984375 0 10 1440H163.3294677734375L601.99853515625 166.6639404296875L1044.0008544921875 1440H1197.330322265625L701.32861328125 0Z" transform="translate(277.752 84.000) scale(0.004500 -0.004500)" fill="rgba(255,255,255,0.7)"/>
  <path d="M140 0V1440H287.99609375L1080.6678466796875 259.9932861328125V1440H1228.6639404296875V0H1080.6678466796875L287.99609375 1181.340087890625V0Z" transform="translate(284.902 84.000) scale(0.004500 -0.004500)" fill="rgba(255,255,255,0.7)"/>
  <path d="M160 0V1440H306.662841796875V0Z" transform="translate(292.782 84.000) scale(0.004500 -0.004500)" fill="rgba(255,255,255,0.7)"/>
  <path d="M140 0V1440H287.99609375L1080.6678466796875 259.9932861328125V1440H1228.6639404296875V0H1080.6678466796875L287.99609375 1181.340087890625V0Z" transform="translate(296.602 84.000) scale(0.004500 -0.004500)" fill="rgba(255,255,255,0.7)"/>
  <path d="M717.3326416015625 -30Q564.6654663085938 -30 442.99884033203125 22.833465576171875Q321.33221435546875 75.66693115234375 235.83248901367188 174.0003662109375Q150.332763671875 272.33380126953125 105.1663818359375 410.6670837402344Q60 549.0003662109375 60 720Q60 946.3329467773438 138.49960327148438 1114.4996337890625Q216.99920654296875 1282.6663208007812 364.1656494140625 1375.6664733886719Q511.33209228515625 1468.6666259765625 717.3326416015625 1468.6666259765625Q947.3311767578125 1468.6666259765625 1091.6640625 1361.3339538574219Q1235.9969482421875 1254.0012817382812 1292.6636962890625 1073.3363037109375L1145.3343505859375 1037.33642578125Q1097.6674194335938 1169.3366088867188 990.1668395996094 1248.1700439453125Q882.666259765625 1327.0034790039062 723.332275390625 1327.3367919921875Q554.331298828125 1328.00341796875 442.3306579589844 1251.3362731933594Q330.33001708984375 1174.6691284179688 273.8296813964844 1037.3350219726562Q217.329345703125 900.0009155273438 215.9959716796875 720Q214.66259765625 539.9990844726562 271.1629333496094 403.33160400390625Q327.66326904296875 266.66412353515625 440.9972839355469 189.33029174804688Q554.331298828125 111.9964599609375 723.332275390625 111.329833984375Q877.66748046875 110.6632080078125 978.8349304199219 170.99734497070312Q1080.0023803710938 231.33148193359375 1132.3357238769531 342.99932861328125Q1184.6690673828125 454.66717529296875 1192.001953125 608.001708984375H859.998779296875V733.9991455078125H1345.997802734375Q1348.6644897460938 710.9988403320312 1349.3311462402344 685.3323974609375Q1349.997802734375 659.6659545898438 1349.997802734375 648.665771484375Q1349.997802734375 454.33282470703125 1279.9982299804688 300.6663513183594Q1209.9986572265625 146.9998779296875 1069.3323669433594 58.49993896484375Q928.6660766601562 -30 717.3326416015625 -30Z" transform="translate(304.482 84.000) scale(0.004500 -0.004500)" fill="rgba(255,255,255,0.7)"/>
</svg>
